<svg width="120" height="56" viewBox="0 0 120 56" xmlns="http://www.w3.org/2000/svg">
  <defs>
    <linearGradient id="logoGradient" x1="0%" y1="0%" x2="100%" y2="100%">
      <stop offset="0%" style="stop-color:#00e0ff;stop-opacity:1" />
      <stop offset="100%" style="stop-color:#0099cc;stop-opacity:1" />
    </linearGradient>
    <filter id="glow" x="-20%" y="-20%" width="140%" height="140%">
      <feGaussianBlur stdDeviation="2" result="coloredBlur"/>
      <feMerge> 
        <feMergeNode in="coloredBlur"/>
        <feMergeNode in="SourceGraphic"/>
      </feMerge>
    </filter>
  </defs>
  
  <!-- Background circle -->
  <circle cx="60" cy="28" r="26" fill="url(#logoGradient)" opacity="0.2" filter="url(#glow)"/>
  
  <!-- Main shield shape -->
  <path d="M60 8 L48 16 L48 32 L60 46 L72 32 L72 16 Z" fill="url(#logoGradient)" stroke="#ffffff" stroke-width="1.5" filter="url(#glow)"/>
  
  <!-- Inner geometric pattern -->
  <path d="M60 14 L55 18 L55 26 L60 32 L65 26 L65 18 Z" fill="#ffffff" opacity="0.9"/>
  
  <!-- Key symbol in center -->
  <circle cx="60" cy="22" r="2" fill="url(#logoGradient)"/>
  <rect x="58" y="24" width="4" height="6" fill="url(#logoGradient)"/>
  <rect x="56" y="26" width="2" height="2" fill="url(#logoGradient)"/>
  <rect x="62" y="28" width="2" height="2" fill="url(#logoGradient)"/>
  
  <!-- Side elements -->
  <rect x="20" y="24" width="8" height="8" fill="url(#logoGradient)" opacity="0.6" transform="rotate(45 24 28)"/>
  <rect x="92" y="24" width="8" height="8" fill="url(#logoGradient)" opacity="0.6" transform="rotate(45 96 28)"/>
  
  <!-- Data lines -->
  <line x1="10" y1="20" x2="30" y2="20" stroke="url(#logoGradient)" stroke-width="2" opacity="0.7"/>
  <line x1="10" y1="28" x2="25" y2="28" stroke="url(#logoGradient)" stroke-width="2" opacity="0.5"/>
  <line x1="10" y1="36" x2="30" y2="36" stroke="url(#logoGradient)" stroke-width="2" opacity="0.7"/>
  
  <line x1="90" y1="20" x2="110" y2="20" stroke="url(#logoGradient)" stroke-width="2" opacity="0.7"/>
  <line x1="95" y1="28" x2="110" y2="28" stroke="url(#logoGradient)" stroke-width="2" opacity="0.5"/>
  <line x1="90" y1="36" x2="110" y2="36" stroke="url(#logoGradient)" stroke-width="2" opacity="0.7"/>
</svg>